<svg width="499.978" height="394.332" xmlns="http://www.w3.org/2000/svg">

 <g>
  <title>background</title>
  <rect fill="none" id="canvas_background" height="582" width="582" y="-1" x="-1"/>
 </g>
 <g>
  <title>Layer 1</title>
  <path id="svg_1" fill="#FFFFFF" d="m404.147003,119.473999c-4.312012,0 -8.516998,0.364998 -12.667999,0.901001c-3.669006,-67.063 -59.222015,-120.375 -127.218018,-120.375c-55.520996,0 -97.79599,40.417999 -115.268997,89.954002c-9.320999,-2.445999 -24.016998,-8.667999 -34.111,-8.667999c-63.446991,0 -114.880989,51.445 -114.880989,114.926003c0,63.437012 51.433998,114.882019 114.880997,114.882019c20.595001,0 55.972,0 95.264008,0l0,24.306976c0,2.359009 0.481995,4.591003 1.276001,6.628998c-0.794006,2.081024 -1.276001,4.27002 -1.276001,6.628998l0,27.482025c0,10.039001 8.140991,18.191986 18.181992,18.191986l60.80899,0c10.050018,0 18.182007,-8.152008 18.182007,-18.191986l0,-27.482025c0,-2.358978 -0.472015,-4.546997 -1.287018,-6.628998c0.815002,-2.037994 1.287018,-4.269989 1.287018,-6.628998l0,-24.306976c43.946991,0 81.596985,0 96.82901,0c52.924988,0 95.830994,-42.906006 95.830994,-95.832016c0,-52.903015 -42.906006,-95.78801 -95.830994,-95.78801zm-69.358002,126.789001l-45.513,0l0,43.441986l0,1.953003l-60.348007,0l0,-1.973999l0,-43.42099l-44.257996,0c0,0 -14.171005,0.365005 -7.701996,-12.893997l72.11499,-95.874008c0,0 11.134995,-15.574997 23.544998,0.536011l69.593994,96.796997c3.411011,11.626999 -7.432983,11.434998 -7.432983,11.434998zm-45.653015,129.877014l-60.80899,0l0,-22.548004l0,-4.93399l60.80899,0l0,4.93399l0,22.548004zm0,-45.673004l0,4.93399l-60.80899,0l0,-4.93399l0,-19.372986l0,-1.308014l0,-1.910004l60.80899,0l0,1.973999l0,1.244995l0,19.372009z"/>
 </g>
</svg>